Coordinates
version=1
nRows=16
nColumns=28
inDegrees=yes

Units are S.I. units (second, meters, Newtons, ...)
Angles are in degrees.

endheader
time	pelvis_tilt	pelvis_list	pelvis_rotation	pelvis_tx	pelvis_ty	pelvis_tz	hip_flexion_r	hip_adduction_r	hip_rotation_r	knee_angle_r	ankle_angle_r	subtalar_angle_r	mtp_angle_r	hip_flexion_l	hip_adduction_l	hip_rotation_l	knee_angle_l	socket_flexion	socket_adduction	socket_rotation	socket_tx	socket_ty	socket_tz	foot_flex	lumbar_extension	lumbar_bending	lumbar_rotation
      0.63333333	      3.43681721	      5.62752561	     12.69336602	     -0.01105442	      1.00573341	      0.25166592	     19.60641433	     -8.20041272	    -15.27608149	     -7.58691011	     18.82616396	    -11.79554448	    -13.21501251	    -25.19911755	      3.90125208	      9.21543965	     -8.58491243	      0.35385128	     -1.51770729	     10.81403201	      0.00000000	     -0.00365325	      0.00000000	      9.68791909	    -16.90994751	     -3.89254578	    -10.51431026
      0.63750000	      3.28665160	      5.69319533	     12.71955323	     -0.01103043	      1.00557587	      0.25168035	     19.78279986	     -8.31475020	    -15.26890833	     -7.65112280	     18.81247092	    -11.61174931	    -12.75690202	    -24.94799329	      3.99860874	      9.13800021	     -8.89602743	      0.17233807	     -1.55521620	     10.95461279	      0.00000000	     -0.00353704	      0.00000000	      9.68673387	    -16.75830587	     -4.02278998	    -10.36041931
      0.64166667	      3.32999943	      5.65182546	     12.86512573	     -0.00426426	      1.00455243	      0.25155345	     20.18481481	     -8.48001504	    -15.97730140	     -9.05105125	     17.28903596	    -10.74125699	     -4.77505273	    -24.99280297	      3.85603446	      8.74001956	     -9.80629664	     -0.16578644	     -1.75318191	     11.38923676	      0.00000000	     -0.00335509	      0.00000000	      9.61469240	    -16.67910726	     -3.84363119	    -10.45359010
      0.64583333	      3.44225520	      5.52848401	     12.85179283	      0.00208272	      1.00375175	      0.25187405	     20.32720425	     -8.31779687	    -15.68730215	     -9.95587210	     16.81296017	    -10.91841440	     -4.67594001	    -25.25839134	      3.66964993	      8.72740646	    -10.06272222	     -0.04379208	     -1.76613430	     11.22922264	      0.00000000	     -0.00334443	      0.00000000	      9.55097874	    -16.70985230	     -3.59819173	    -10.52815943
      0.65000000	      3.53435272	      5.39524534	     12.85509900	      0.00853759	      1.00296622	      0.25215648	     20.49104746	     -8.15947169	    -15.44906685	    -10.90015130	     16.39080053	    -11.00663246	     -4.59989624	    -25.48834805	      3.47796018	      8.75147262	    -10.36173148	      0.06183462	     -1.79225744	     11.06797622	      0.00000000	     -0.00334951	      0.00000000	      9.43891025	    -16.70413990	     -3.34256785	    -10.53333802
      0.65416667	      3.61882444	      5.25735624	     12.88779247	      0.01490035	      1.00222703	      0.25248283	     20.65132418	     -7.99716195	    -15.18796844	    -11.84235975	     15.99435570	    -11.05072251	     -4.53452144	    -25.68434166	      3.26398590	      8.80835336	    -10.67402012	      0.18668438	     -1.79744820	     10.94826679	      0.00000000	     -0.00340311	      0.00000000	      9.30808974	    -16.71569276	     -3.09207686	    -10.52464097
      0.65833333	      3.71746094	      5.09192960	     12.82388374	      0.02137593	      1.00146879	      0.25284273	     20.87824564	     -7.80990453	    -15.01859031	    -12.89754990	     15.52192916	    -11.15476080	     -4.39095779	    -25.87033923	      3.08870535	      8.77425698	    -11.05532880	      0.29397936	     -1.81384351	     10.68662538	      0.00000000	     -0.00349818	      0.00000000	      9.13841064	    -16.69322329	     -2.82628123	    -10.48997461
      0.66250000	      3.75577988	      4.93266339	     12.77915040	      0.02782055	      1.00069171	      0.25322725	     21.14920889	     -7.63691584	    -14.78148817	    -13.93901463	     15.00796343	    -11.29054543	     -4.02052266	    -25.95895607	      2.92454968	      8.75978303	    -11.50113736	      0.38240229	     -1.83884075	     10.49036490	      0.00000000	     -0.00356844	      0.00000000	      8.96008923	    -16.61991249	     -2.58088433	    -10.37403676
      0.66666667	      3.84500259	      4.75972560	     12.75762343	      0.03422953	      1.00003337	      0.25364616	     21.32413291	     -7.42670250	    -14.52255074	    -14.90965979	     14.60416576	    -11.32428092	     -3.87923873	    -26.09198411	      2.71647941	      8.81415635	    -11.91728113	      0.52635925	     -1.82877305	     10.31145456	      0.00000000	     -0.00375464	      0.00000000	      8.72891041	    -16.61777374	     -2.31250125	    -10.34387456
      0.67083333	      3.91103312	      4.57039372	     12.65910015	      0.04087112	      0.99943234	      0.25409739	     21.55450352	     -7.20811035	    -14.35619960	    -15.94751850	     14.11053545	    -11.46826285	     -3.54741385	    -26.15655739	      2.56321925	      8.74616902	    -12.45263236	      0.60495872	     -1.84287404	      9.95115464	      0.00000000	     -0.00367588	      0.00000000	      8.48646469	    -16.52659490	     -2.03795284	    -10.23631217
      0.67500000	      3.99556585	      4.38301544	     12.64404707	      0.04725258	      0.99886477	      0.25457791	     21.71462954	     -6.97677392	    -14.07676433	    -16.89481419	     13.73597265	    -11.50454220	     -3.38729460	    -26.23646712	      2.34269653	      8.83716914	    -12.92325672	      0.77616698	     -1.82144573	      9.78448327	      0.00000000	     -0.00393143	      0.00000000	      8.21071649	    -16.52775159	     -1.76490497	    -10.18435629
      0.67916667	      4.09838332	      4.16823135	     12.54784597	      0.05379226	      0.99836243	      0.25509517	     21.89121652	     -6.71350431	    -13.88111727	    -17.90723921	     13.33698315	    -11.58854915	     -3.21129178	    -26.30513728	      2.15356800	      8.84394576	    -13.46282811	      0.90946919	     -1.79826838	      9.43576051	      0.00000000	     -0.00403592	      0.00000000	      7.89001359	    -16.50661786	     -1.45924021	    -10.11727056
      0.68333333	      3.73758756	      3.95039926	     12.50260634	      0.06044764	      0.99729849	      0.25568849	     22.44710851	     -6.50323620	    -13.47815632	    -18.59058667	     10.56017146	    -13.19488249	      5.70718380	    -25.12157178	      2.06157442	      7.76580322	    -16.24522975	     -0.33073034	     -2.20228723	     10.12662609	      0.00000000	     -0.00325743	      0.00000000	      7.55792079	    -15.93482013	     -1.33028842	     -9.84377969
      0.68750000	      3.87670322	      3.74552930	     12.43037865	      0.06691189	      0.99698360	      0.25627617	     22.52023486	     -6.22691524	    -13.24943386	    -19.50388691	     10.30445345	    -13.16377804	      5.69560171	    -25.21331193	      1.85173511	      7.85458773	    -16.71694114	     -0.05824950	     -2.14343333	      9.83238591	      0.00000000	     -0.00344622	      0.00000000	      7.21020645	    -15.98767487	     -1.02446496	     -9.82746583
      0.69166667	      4.03367945	      3.49899861	     12.29382400	      0.07351012	      0.99672325	      0.25689575	     22.59606456	     -5.90253783	    -13.08985627	    -20.45935142	     10.05379220	    -13.17942942	      5.68896222	    -25.28861264	      1.65077116	      7.90637229	    -17.26922112	      0.15325487	     -2.06221410	      9.36496635	      0.00000000	     -0.00356425	      0.00000000	      6.80712788	    -16.01268254	     -0.68993567	     -9.77531472
      0.69583333	      4.17886438	      3.24345098	     12.16078906	      0.08012738	      0.99651634	      0.25752438	     22.64235021	     -5.56372694	    -12.92830193	    -21.34246600	      9.83679987	    -13.22081887	      5.69209193	    -25.31415527	      1.44893106	      8.00032991	    -17.89288117	      0.35002275	     -1.96247869	      8.87056183	      0.00000000	     -0.00367329	      0.00000000	      6.40313443	    -16.01768671	     -0.35711466	     -9.67635192
